<svg xmlns="http://www.w3.org/2000/svg" viewBox="0 0 166 35">
<style type="text/css">path,rect{ fill:white; }</style>
<path d="M26.008,17.785c-1.76,0-3.275,0.469-4.546,1.403l-1.324-4.514l5.629-6.922l-8.918-0.258l-4.844-7.493L9.003,8.404
L0.38,10.696l7.064,5.45l-0.485,8.909l7.366-5.034l4.833,1.867c-0.699,1.321-1.058,2.863-1.058,4.635
c0,2.532,0.684,4.529,2.052,5.99c1.379,1.441,3.278,2.162,5.698,2.162c2.042,0,3.695-0.469,4.961-1.406s2.117-2.333,2.555-4.188
l-6.125-0.125c-0.219,0.688-0.683,1.256-1.391,1.256c-0.906,0-1.396-1.213-1.469-2.213h9.188l0.031-1.296
c0-2.627-0.688-4.847-2.062-6.437C30.164,18.688,28.32,17.785,26.008,17.785z M24.445,24c0,0,0.135-0.812,0.406-1.099
c0.271-0.287,0.625-0.43,1.062-0.43c0.208,0,0.401,0.04,0.578,0.118c0.177,0.078,0.331,0.185,0.461,0.319
c0.13,0.135,0.231,0.293,0.305,0.479C27.331,23.574,27.367,24,27.367,24H24.445z"/>
<rect x="36" y="18" width="6" height="17"/>
<path d="M39.133,8.863c-0.979,0-1.839,0.354-2.578,1.062c-0.708,0.708-1.062,1.568-1.062,2.578c0,0.99,0.354,1.854,1.062,2.594
c0.719,0.719,1.583,1.078,2.594,1.078c0.979,0,1.838-0.354,2.578-1.062c0.719-0.719,1.078-1.573,1.078-2.562
c0-1.031-0.354-1.901-1.062-2.609C41.034,9.223,40.164,8.863,39.133,8.863z"/>
<path d="M56.086,17.785c-2.097,0-3.686,1.073-4.766,3.219l0.062-1.078c0.021-0.302,0.036-0.522,0.047-0.877
C51.44,18.695,51.45,18,51.461,18H45v17h6v-8.84c0-1.656,0.788-2.484,1.904-2.484c0.478,0,0.714,0.151,0.906,0.453
C54.003,24.431,54,24.968,54,25.738V35h7V23.4c0-1.765-0.554-3.142-1.372-4.131C58.82,18.28,57.543,17.785,56.086,17.785z"/>
<path d="M71.664,18.643l0.062,0.931c0.01,0.104,0.021,0.208,0.031,0.364c0.01,0.156,0.026,0.326,0.047,0.534
c-1.031-1.781-2.386-2.679-4.062-2.679c-1.636,0-2.927,0.747-3.875,2.247c-0.948,1.48-1.422,3.508-1.422,6.088
c0,2.67,0.456,4.76,1.369,6.27c0.924,1.521,2.174,2.28,3.751,2.28c1.815,0,3.263-0.948,4.342-2.844
c-0.031,0.312-0.062,0.886-0.094,1.396C71.782,33.739,71.741,34,71.689,35H78V18h-6.383L71.664,18.643z M70.164,29.598
c-0.958,0-1.438-0.937-1.438-2.81c0-2.616,0.537-3.925,1.611-3.925c0.242,0,0.448,0.056,0.616,0.167
c0.169,0.111,0.306,0.294,0.411,0.55c0.105,0.256,0.182,0.587,0.229,0.992c0.048,0.405,0.071,0.898,0.071,1.477
C71.664,28.415,71.164,29.598,70.164,29.598z"/>
<path d="M87.074,21.189L87.18,18H81v17h6v-7.574c0-1.167,0.316-2.055,0.77-2.664s1.369-0.914,2.213-0.914
c0.479,0,1.018,0.188,2.018,0.562v-7.031C89,17.379,88.022,18.721,87.074,21.189z"/>
<path d="M101.555,23.174c-0.136,0.636-0.271,1.342-0.406,2.228c-0.136,0.886-0.276,1.9-0.422,3.098
c-0.115-1.312-0.229-2.454-0.344-3.396c-0.115-0.942-0.24-1.631-0.375-2.267L99.039,18h-6.344l4.656,17h6.547l4.922-17h-6.188
L101.555,23.174z"/>
<path d="M118.914,18.643l0.062,0.931c0.01,0.104,0.021,0.208,0.031,0.364c0.01,0.156,0.026,0.326,0.047,0.534
c-1.031-1.781-2.386-2.679-4.062-2.679c-1.636,0-2.927,0.747-3.875,2.247c-0.948,1.48-1.422,3.508-1.422,6.088
c0,2.67,0.456,4.76,1.369,6.27c0.924,1.521,2.174,2.28,3.751,2.28c1.815,0,3.263-0.948,4.342-2.844
c-0.031,0.312-0.062,0.886-0.094,1.396c-0.031,0.511-0.072,0.771-0.124,1.771H125V18h-6.133L118.914,18.643z M117.414,29.598
c-0.958,0-1.438-0.937-1.438-2.81c0-2.616,0.537-3.925,1.611-3.925c0.242,0,0.448,0.056,0.616,0.167
c0.169,0.111,0.306,0.294,0.411,0.55c0.105,0.256,0.182,0.587,0.229,0.992c0.048,0.405,0.071,0.898,0.071,1.477
C118.914,28.415,118.414,29.598,117.414,29.598z"/>
<rect x="128" y="8" width="6" height="27"/>
<path d="M146,27.301c0,0.979,0.027,1.641-0.16,1.984c-0.177,0.344-0.46,0.516-0.971,0.516c-0.521,0-0.646-0.172-0.833-0.516
c-0.177-0.417-0.036-1.078-0.036-1.984V18h-7v9.938c0,0.674,0.215,1.284,0.324,1.83c0.11,0.547,0.362,1.044,0.597,1.493
s0.578,0.855,0.948,1.218c0.371,0.362,0.837,0.697,1.359,1.003c1.357,0.796,2.927,1.194,4.692,1.194
c1.743,0,3.309-0.398,4.687-1.194c0.511-0.306,0.955-0.643,1.325-1.011c0.371-0.367,0.674-0.773,0.909-1.217
s0.646-0.939,0.756-1.486c0.11-0.546,0.403-1.156,0.403-1.83V18h-7V27.301z"/>
<path d="M161.324,21.189L161.68,18H155v17h7v-7.574c0-1.167,0.066-2.055,0.52-2.664s0.994-0.914,1.838-0.914
c0.479,0,0.643,0.188,1.643,0.562v-7.031C164,17.379,162.272,18.721,161.324,21.189z"/>
</svg>
