<?xml version="1.0" encoding="utf-8"?>
<!-- Generator: Adobe Illustrator 16.0.0, SVG Export Plug-In . SVG Version: 6.00 Build 0)  -->
<!DOCTYPE svg PUBLIC "-//W3C//DTD SVG 1.1//EN" "http://www.w3.org/Graphics/SVG/1.1/DTD/svg11.dtd">
<svg version="1.1" id="Layer_1" xmlns="http://www.w3.org/2000/svg" xmlns:xlink="http://www.w3.org/1999/xlink" x="0px" y="0px"
	 width="112px" height="104.618px" viewBox="0 0 112 104.618" enable-background="new 0 0 112 104.618" xml:space="preserve">
<path fill="#5B5872" d="M112,76.447c0-7.888-1.66-14.292-4.252-19.212c-2.591-4.92-6.547-8.677-11.506-11.27
	c-4.958-2.591-11.811-3.887-20.374-3.887c-7.045,0-13.113,1.296-18.124,3.873l-3.306-8.294L67.93,17.539l-24.187,1.52L28.78,0
	l-6.029,23.467l-22.75,8.338L20.457,44.79l0.901,24.211l18.67-15.442l6.933,1.971c-3.325,4.987-4.989,10.963-4.989,17.931
	c0,6.573,1.493,12.292,4.48,17.156c2.986,4.865,6.75,8.415,11.296,10.648c4.544,2.235,10.781,3.353,18.706,3.353
	c9.127,0,16.132-1.305,21.015-3.916c4.883-2.61,9.051-6.92,12.508-12.93l-22.593-2.084c-1.428,1.803-2.76,3.062-4,3.774
	c-2.029,1.127-4.17,1.691-6.423,1.691c-3.569,0-6.461-0.815-8.676-3.406C66.706,85.942,65.71,83,65.296,80H112V76.447z M65.354,69
	c0.374-4,1.257-6.728,2.648-8.53c2.178-2.893,5.089-4.576,8.732-4.576c3.156,0,5.7,1.313,7.635,3.229
	C86.303,61.038,87.496,64,87.947,69H65.354z"/>
</svg>
